# xmcd CD database file
#
# Track frame offsets:
#	150
#	29270
#	63053
#
# Disc length: 1226 seconds
#
# Revision: 2
# Processed by: cddbd v1.5PL3 Copyright (c) Steve Scherf et al.
# Submitted via: CDex 1.51
#
DISCID=1a04c803
DTITLE=globe - Perfume of love
DYEAR=1998
DGENRE=JPop
TTITLE0=Perfume of love  Straight Run
TTITLE1=Perfume of love  Aromatic Mix
TTITLE2=Perfume of love  TV Mix
EXTD=YEAR: 1998
EXTT0=
EXTT1=
EXTT2=
PLAYORDER=
